<?xml version="1.0" encoding="utf-8"?>
<!-- Generator: Adobe Illustrator 23.1.0, SVG Export Plug-In . SVG Version: 6.00 Build 0)  -->
<svg version="1.1" id="Layer_1" xmlns="http://www.w3.org/2000/svg" xmlns:xlink="http://www.w3.org/1999/xlink" x="0px" y="0px"
	 viewBox="0 0 40 25" style="enable-background:new 0 0 40 25;" xml:space="preserve">
<style type="text/css">
	.st0{fill:none;stroke:#939598;stroke-width:0.35;}
	.st1{fill:#009ADE;}
	.st2{fill:#002F87;}
	.st3{fill:#002169;}
</style>
<title>Google</title>
<desc>Created with Sketch.</desc>
<g>
	<path class="st0" d="M4.2,0.2h31.7c2.2,0,4,1.8,4,4v16.7c0,2.2-1.8,4-4,4H4.2c-2.2,0-4-1.8-4-4V4.2C0.2,2,2,0.2,4.2,0.2z"/>
	<path class="st1" d="M23.5,16.4H22c-0.1,0-0.2,0.1-0.2,0.2l-0.6,3.8l0.1,0.1h0.8l0.1-0.1l0.2-1.1c0-0.1,0.1-0.2,0.2-0.2h0.5
		c1,0,1.5-0.5,1.7-1.4c0.1-0.4,0-0.7-0.2-1C24.4,16.5,24,16.4,23.5,16.4z M23.7,17.8c-0.1,0.5-0.5,0.5-0.9,0.5h-0.2l0.2-1l0.1-0.1
		H23c0.3,0,0.5,0,0.7,0.2C23.7,17.5,23.7,17.6,23.7,17.8z"/>
	<path class="st2" d="M12.9,16.4h-1.5c-0.1,0-0.2,0.1-0.2,0.2l-0.6,3.8l0.1,0.1h0.7c0.1,0,0.2-0.1,0.2-0.2l0.2-1
		c0-0.1,0.1-0.2,0.2-0.2h0.5c1,0,1.5-0.5,1.7-1.4c0.1-0.4,0-0.7-0.2-1C13.8,16.5,13.4,16.4,12.9,16.4z M13.1,17.8
		c-0.1,0.5-0.5,0.5-0.9,0.5H12l0.2-1l0.1-0.1h0.1c0.3,0,0.5,0,0.7,0.2C13.1,17.5,13.1,17.6,13.1,17.8z"/>
	<path class="st2" d="M17.4,17.8h-0.7l-0.1,0.1l0,0.2l0-0.1c-0.2-0.2-0.5-0.3-0.8-0.3c-0.8,0-1.5,0.6-1.6,1.4
		c-0.1,0.4,0,0.8,0.3,1.1c0.2,0.3,0.5,0.4,0.9,0.4c0.6,0,1-0.4,1-0.4l0,0.2l0.1,0.1h0.6c0.1,0,0.2-0.1,0.2-0.2l0.4-2.4L17.4,17.8z
		 M16.4,19.2c-0.1,0.4-0.4,0.7-0.8,0.7c-0.2,0-0.4-0.1-0.5-0.2c-0.1-0.1-0.1-0.3-0.1-0.5c0.1-0.4,0.4-0.7,0.8-0.7
		c0.2,0,0.4,0.1,0.5,0.2C16.4,18.8,16.4,19,16.4,19.2z"/>
	<path class="st1" d="M28,17.8h-0.7l-0.1,0.1l0,0.2l0-0.1c-0.2-0.2-0.5-0.3-0.8-0.3c-0.8,0-1.5,0.6-1.6,1.4c-0.1,0.4,0,0.8,0.3,1.1
		c0.2,0.3,0.5,0.4,0.9,0.4c0.6,0,1-0.4,1-0.4l0,0.2l0.1,0.1h0.6c0.1,0,0.2-0.1,0.2-0.2l0.4-2.4L28,17.8z M27,19.2
		c-0.1,0.4-0.4,0.7-0.8,0.7c-0.2,0-0.4-0.1-0.5-0.2c-0.1-0.1-0.1-0.3-0.1-0.5c0.1-0.4,0.4-0.7,0.8-0.7c0.2,0,0.4,0.1,0.5,0.2
		C27,18.8,27,19,27,19.2z"/>
	<path class="st2" d="M21.2,17.8h-0.7l-0.2,0.1l-1,1.5l-0.4-1.4c0-0.1-0.1-0.1-0.2-0.1H18L17.8,18l0.8,2.3l-0.7,1
		c-0.1,0.1,0,0.2,0.1,0.2h0.7l0.2-0.1l2.4-3.4C21.3,17.9,21.3,17.8,21.2,17.8z"/>
	<path class="st1" d="M28.8,16.5l-0.6,3.9l0.1,0.1h0.6c0.1,0,0.2-0.1,0.2-0.2l0.6-3.8l-0.1-0.1h-0.7L28.8,16.5z"/>
	<path class="st1" d="M24.8,5.7c0.2-1,0-1.6-0.5-2.2c-0.6-0.7-1.6-0.9-2.9-0.9h-3.8c-0.3,0-0.5,0.2-0.5,0.5l-1.6,10.1
		c0,0.2,0.1,0.4,0.3,0.4h2.4l-0.2,1c0,0.2,0.1,0.3,0.3,0.3h2c0.2,0,0.4-0.2,0.5-0.4l0-0.1l0.4-2.4l0-0.1c0-0.2,0.2-0.4,0.5-0.4h0.3
		c1.9,0,3.4-0.8,3.9-3.1c0.2-0.9,0.1-1.7-0.4-2.3C25.2,6,25,5.8,24.8,5.7"/>
	<path class="st3" d="M24.8,5.7c0.2-1,0-1.6-0.5-2.2c-0.6-0.7-1.6-0.9-2.9-0.9h-3.8c-0.3,0-0.5,0.2-0.5,0.5l-1.6,10.1
		c0,0.2,0.1,0.4,0.3,0.4h2.4l0.6-3.8l0,0.1c0-0.3,0.3-0.5,0.5-0.5h1.1c2.2,0,3.9-0.9,4.4-3.5L24.8,5.7"/>
	<path class="st2" d="M19.3,5.7c0-0.2,0.1-0.3,0.3-0.4l0.2,0h3c0.4,0,0.7,0,1,0.1l0.3,0l0.2,0.1l0.1,0c0.1,0,0.3,0.1,0.4,0.2
		c0.2-1,0-1.6-0.5-2.2c-0.6-0.7-1.6-0.9-2.9-0.9h-3.8c-0.3,0-0.5,0.2-0.5,0.5l-1.6,10.1c0,0.2,0.1,0.4,0.3,0.4h2.4l0.6-3.8L19.3,5.7
		z"/>
</g>
</svg>