<?xml version="1.0" encoding="UTF-8"?>
<svg width="40px" height="25px" viewBox="0 0 40 25" version="1.1" xmlns="http://www.w3.org/2000/svg" xmlns:xlink="http://www.w3.org/1999/xlink">
    <!-- Generator: Sketch 53.2 (72643) - https://sketchapp.com -->
    <title>Apple Pay</title>
    <desc>Created with Sketch.</desc>
    <g id="(done)-Footer---tanz" stroke="none" stroke-width="1" fill="none" fill-rule="evenodd">
        <g id="Footer" transform="translate(-837.000000, -529.000000)">
            <g id="Group-13" transform="translate(507.000000, 529.000000)">
                <g id="Apple-Pay" transform="translate(330.000000, 0.000000)">
                    <g id="Group-9" transform="translate(6.000000, 7.000000)" fill="#000000">
                        <path d="M5.96567213,2.42703709 C5.15193781,2.3784925 4.4578717,2.88817061 4.07493977,2.88817061 C3.69200783,2.88817061 3.09366678,2.45131743 2.44748697,2.45131743 C1.60980951,2.47558169 0.84394564,2.9367152 0.413143254,3.7133645 C-0.448445672,5.24239884 0.173822681,7.49953787 1.03541161,8.73732068 C1.44228669,9.34408799 1.94487099,10.0236481 2.59108249,9.99936776 C3.21335084,9.97511956 3.45267141,9.58679491 4.19460798,9.58679491 C4.93654454,9.58679491 5.15193781,9.99936776 5.82206077,9.97511956 C6.49219957,9.95083923 6.92300196,9.36835226 7.32986119,8.73732068 C7.80853403,8.03348025 8,7.35390408 8,7.32965588 C7.9760727,7.30537555 6.68366554,6.81997777 6.68366554,5.3152077 C6.65973824,4.05314455 7.68886582,3.44639332 7.73673628,3.42212905 C7.18626568,2.54839056 6.2768063,2.45131743 5.96567213,2.42703709 M5.46307198,1.60185927 C5.79813346,1.16499002 6.03746988,0.582486974 5.96567213,0 C5.46307198,0.0242803337 4.86473093,0.339780051 4.50574215,0.752385034 C4.19460798,1.11644542 3.9074011,1.72319666 3.97921471,2.28141937 C4.5536126,2.35422823 5.10406735,2.03871244 5.46307198,1.60185927" id="Fill-5"></path>
                        <path d="M23.4563544,11.9544477 L23.4563544,10.90682 C23.5511094,10.9296037 23.7880361,10.9296037 23.8827911,10.9296037 C24.4987534,10.9296037 24.8304194,10.6790887 25.0436299,10.0414016 C25.0436299,10.018633 25.1620855,9.65424468 25.1620855,9.65424468 L22.7930067,3.36853901 L24.2381576,3.36853901 L25.8964876,8.49275887 L25.9201882,8.49275887 L27.5785496,3.36853901 L29,3.36853901 L26.5598354,9.99584929 C25.9912583,11.5217385 25.3516111,12 24.0012309,12 C23.9064759,11.9772314 23.5748099,11.9772314 23.4563544,11.9544477 L23.4563544,11.9544477 Z M20.9214504,7.28572075 L20.9214504,6.78469061 L19.3104743,6.87578014 C18.5049863,6.92133245 18.0548648,7.26293706 18.0548648,7.8095195 C18.0548648,8.35610195 18.5286711,8.72049024 19.2393885,8.72049024 C20.1870169,8.72049024 20.9214504,8.10558688 20.9214504,7.28572075 L20.9214504,7.28572075 Z M16.6807997,7.85507181 C16.6807997,6.76190692 17.5573579,6.07866755 19.1209486,5.98757801 L20.9214504,5.8964734 L20.9214504,5.41821188 C20.9214504,4.71221897 20.4239436,4.30227837 19.6184398,4.30227837 C18.836668,4.30227837 18.3628459,4.66666667 18.2443904,5.21324911 L16.9650804,5.21324911 C17.0361662,4.07453191 18.0548648,3.23188209 19.6658408,3.23188209 C21.2531164,3.23188209 22.2717993,4.02899469 22.2717993,5.30435373 L22.2717993,9.63146099 L20.9925206,9.63146099 L20.9925206,8.6066321 L20.9688201,8.6066321 C20.5897687,9.312625 19.7605958,9.74533422 18.9077381,9.74533422 C17.5810584,9.74533422 16.6807997,8.97102039 16.6807997,7.85507181 L16.6807997,7.85507181 Z M11.3977656,5.5548688 L12.9850412,5.5548688 C14.1932654,5.5548688 14.8802979,4.91718174 14.8802979,3.84680054 C14.8802979,2.75363564 14.1932654,2.1387172 12.9850412,2.1387172 L11.3740651,2.1387172 L11.3740651,5.5548688 L11.3977656,5.5548688 Z M13.3640925,1 C15.1172089,1 16.3254332,2.16150089 16.3254332,3.82401684 C16.3254332,5.50931649 15.0935241,6.67081738 13.3167229,6.67081738 L11.3977656,6.67081738 L11.3977656,9.60869237 L10,9.60869237 L10,1 L13.3640925,1 Z" id="Fill-7"></path>
                    </g>
                    <rect id="Rectangle" stroke="#939598" stroke-width="0.35" x="0.175" y="0.175" width="39.65" height="24.65" rx="4"></rect>
                </g>
            </g>
        </g>
    </g>
</svg>