<?xml version="1.0" encoding="UTF-8"?>
<svg width="40px" height="25px" viewBox="0 0 40 25" version="1.1" xmlns="http://www.w3.org/2000/svg" xmlns:xlink="http://www.w3.org/1999/xlink">
    <!-- Generator: Sketch 53.2 (72643) - https://sketchapp.com -->
    <title>Mastercard</title>
    <desc>Created with Sketch.</desc>
    <defs>
        <polygon id="path-1" points="0 24.8780992 30.3305785 24.8780992 30.3305785 0 0 0"></polygon>
    </defs>
    <g id="(done)-Footer---tanz" stroke="none" stroke-width="1" fill="none" fill-rule="evenodd">
        <g id="Footer" transform="translate(-782.000000, -529.000000)">
            <g id="Group-13" transform="translate(507.000000, 529.000000)">
                <g id="Mastercard" transform="translate(275.000000, 0.000000)">
                    <rect id="Rectangle" stroke="#000000" stroke-width="0.35" fill="#000000" x="0.175" y="0.175" width="39.65" height="24.65" rx="4"></rect>
                    <g id="Group-8" transform="translate(5.000000, 0.000000)">
                        <path d="M8.33471074,20.7603512 C8.35413223,20.431219 8.63657025,20.1799793 8.96590909,20.1994008 C9.29504132,20.2188223 9.54628099,20.5014669 9.5268595,20.8305992 C9.50826446,21.145062 9.24876033,21.3909298 8.9338843,21.3925826 C8.60640496,21.3989876 8.3357438,21.1388636 8.32933884,20.8113843 C8.32913223,20.7944421 8.32954545,20.7772934 8.33057851,20.7603512 L8.33471074,20.7603512 Z M9.9338843,20.7603512 L9.9338843,19.7727479 L9.50413223,19.7727479 L9.50413223,20.0124174 C9.35599174,19.8219215 9.12541322,19.7142769 8.88429752,19.7231612 C8.31363636,19.7231612 7.85123967,20.1855579 7.85123967,20.756219 C7.85123967,21.3266736 8.31363636,21.7892769 8.88429752,21.7892769 C9.12541322,21.7981612 9.35599174,21.6905165 9.50413223,21.5000207 L9.50413223,21.7396901 L9.9338843,21.7396901 L9.9338843,20.7603512 Z M24.4442149,20.7603512 C24.4636364,20.431219 24.746281,20.1799793 25.0754132,20.1994008 C25.4045455,20.2188223 25.6557851,20.5014669 25.6363636,20.8305992 C25.6177686,21.145062 25.3582645,21.3909298 25.0433884,21.3925826 C24.7159091,21.3967149 24.4471074,21.1347314 24.4429752,20.8072521 C24.4427686,20.7915496 24.4431818,20.7758471 24.4442149,20.7603512 L24.4442149,20.7603512 Z M26.7169421,21.5991942 L26.7169421,21.648781 L26.7623967,21.648781 C26.7704545,21.6512603 26.7791322,21.6512603 26.7871901,21.648781 C26.7900826,21.6427893 26.7900826,21.6359711 26.7871901,21.630186 C26.7900826,21.6244008 26.7900826,21.617376 26.7871901,21.6115909 C26.7791322,21.6091116 26.7704545,21.6091116 26.7623967,21.6115909 L26.7169421,21.5991942 Z M26.7623967,21.5640702 C26.7816116,21.5630372 26.8006198,21.5690289 26.8161157,21.5805992 C26.8289256,21.5911364 26.8357438,21.6074587 26.8347107,21.6239876 C26.8353306,21.6378306 26.8301653,21.6512603 26.8202479,21.6611777 C26.8082645,21.6721281 26.7929752,21.6785331 26.7768595,21.6797727 L26.8367769,21.7479545 L26.7892562,21.7479545 L26.7334711,21.6797727 L26.714876,21.6797727 L26.714876,21.7479545 L26.6756198,21.7479545 L26.6756198,21.5661364 L26.7623967,21.5640702 Z M26.75,21.809938 C26.7706612,21.8101446 26.7911157,21.8058058 26.8099174,21.7975413 C26.827686,21.7894835 26.8438017,21.7783264 26.857438,21.7644835 C26.9109504,21.7060124 26.9109504,21.616343 26.857438,21.5578719 C26.8438017,21.5438223 26.827686,21.5326653 26.8099174,21.524814 C26.7911157,21.5165496 26.7704545,21.5124174 26.75,21.5124174 C26.7293388,21.512624 26.7090909,21.5167562 26.6900826,21.524814 C26.6714876,21.5324587 26.6545455,21.5436157 26.6404959,21.5578719 C26.5869835,21.616343 26.5869835,21.7060124 26.6404959,21.7644835 C26.6545455,21.7785331 26.6714876,21.7898967 26.6900826,21.7975413 C26.7109504,21.8064256 26.7334711,21.8107645 26.7561983,21.809938 L26.75,21.809938 Z M26.75,21.4607645 C26.7768595,21.4603512 26.8035124,21.4653099 26.8285124,21.4752273 C26.8522727,21.484938 26.8739669,21.4989876 26.892562,21.5165496 C26.9107438,21.5343182 26.9254132,21.5553926 26.9359504,21.5785331 C26.9570248,21.6272934 26.9570248,21.6826653 26.9359504,21.7314256 C26.9254132,21.7545661 26.9107438,21.7756405 26.892562,21.7934091 C26.8739669,21.8109711 26.8522727,21.8250207 26.8285124,21.8347314 C26.803719,21.8456818 26.7770661,21.8512603 26.75,21.8512603 C26.6700413,21.8506405 26.5977273,21.8039463 26.5640496,21.7314256 C26.5431818,21.6824587 26.5431818,21.6272934 26.5640496,21.5785331 C26.5745868,21.5553926 26.5892562,21.5343182 26.607438,21.5165496 C26.6260331,21.4989876 26.6477273,21.484938 26.6714876,21.4752273 C26.6983471,21.4644835 26.7272727,21.4595248 26.7561983,21.4607645 L26.75,21.4607645 Z M26.0330579,20.7603512 L26.0330579,18.9793595 L25.6198347,18.9793595 L25.6198347,20.0124174 C25.4716942,19.8219215 25.2411157,19.7142769 25,19.7231612 C24.4293388,19.7231612 23.9669421,20.1855579 23.9669421,20.756219 C23.9669421,21.3266736 24.4293388,21.7892769 25,21.7892769 C25.2411157,21.7981612 25.4716942,21.6905165 25.6198347,21.5000207 L25.6198347,21.7396901 L26.0330579,21.7396901 L26.0330579,20.7603512 Z M15.2665289,20.1074587 C15.5367769,20.1016736 15.7607438,20.3161364 15.7665289,20.5865909 L15.7665289,20.5867975 L14.7334711,20.5867975 C14.7489669,20.3109711 14.9820248,20.0979545 15.2582645,20.1074587 L15.2665289,20.1074587 Z M15.2665289,19.7231612 C14.6960744,19.731219 14.239876,20.2002273 14.2479339,20.7706818 C14.2559917,21.341343 14.725,21.7973347 15.2954545,21.7892769 C15.5927686,21.8045661 15.8849174,21.7086983 16.1157025,21.5206818 L15.9090909,21.2025 C15.7458678,21.3332851 15.5438017,21.4060124 15.3347107,21.4091116 C15.0392562,21.4345248 14.7774793,21.2202686 14.7438017,20.9256405 L16.2107438,20.9256405 L16.2107438,20.7603512 C16.2107438,20.1405165 15.8264463,19.7272934 15.2727273,19.7272934 L15.2665289,19.7231612 Z M20.4524793,20.756219 C20.4719008,20.4270868 20.7545455,20.1758471 21.0836777,20.1952686 C21.4128099,20.2146901 21.6640496,20.4973347 21.6446281,20.8264669 C21.6260331,21.1409298 21.3665289,21.3867975 21.0516529,21.3884504 C20.7241736,21.3925826 20.4553719,21.1305992 20.4512397,20.8031198 C20.4510331,20.7874174 20.4514463,20.7717149 20.4524793,20.756219 L20.4524793,20.756219 Z M22.0516529,20.756219 L22.0516529,19.7727479 L21.6219008,19.7727479 L21.6219008,20.0124174 C21.4737603,19.8219215 21.2431818,19.7142769 21.0020661,19.7231612 C20.431405,19.7231612 19.9690083,20.1855579 19.9690083,20.756219 C19.9690083,21.3266736 20.431405,21.7892769 21.0020661,21.7892769 C21.2431818,21.7981612 21.4737603,21.6905165 21.6219008,21.5000207 L21.6219008,21.7396901 L22.0516529,21.7396901 L22.0516529,20.756219 Z M18.0268595,20.756219 C18.0066116,21.3070455 18.4365702,21.7698554 18.9873967,21.7901033 C19.0183884,21.791343 19.0495868,21.7909298 19.0805785,21.7892769 C19.3386364,21.8022934 19.5921488,21.7184091 19.7913223,21.5537397 L19.5847107,21.2066322 C19.436157,21.3198554 19.2549587,21.3822521 19.0681818,21.3843182 C18.7190083,21.3560124 18.4588843,21.0500207 18.4871901,20.7008471 C18.5121901,20.3909298 18.7582645,20.1448554 19.0681818,20.1198554 C19.2549587,20.1219215 19.436157,20.1841116 19.5847107,20.2975413 L19.7913223,19.9504339 C19.5921488,19.7857645 19.3386364,19.7016736 19.0805785,19.7148967 C18.5303719,19.6836983 18.0588843,20.1045661 18.0278926,20.6547727 C18.0260331,20.6857645 18.0256198,20.7169628 18.0268595,20.7479545 L18.0268595,20.756219 Z M23.5640496,19.7231612 C23.3506198,19.7169628 23.1508264,19.8279132 23.0433884,20.0124174 L23.0433884,19.7727479 L22.6177686,19.7727479 L22.6177686,21.7479545 L23.0475207,21.7479545 L23.0475207,20.6405165 C23.0475207,20.3140702 23.1880165,20.1322521 23.4607438,20.1322521 C23.552686,20.1310124 23.6440083,20.1477479 23.7293388,20.1818388 L23.8615702,19.7686157 C23.7634298,19.7334917 23.6599174,19.7153099 23.5557851,19.7148967 L23.5640496,19.7231612 Z M12.053719,19.9297727 C11.8105372,19.7851446 11.5307851,19.7134504 11.2479339,19.7231612 C10.7479339,19.7231612 10.4214876,19.9628306 10.4214876,20.3553926 C10.4214876,20.6777066 10.661157,20.8760537 11.1033058,20.9380372 L11.3099174,20.9669628 C11.5454545,21.0000207 11.6570248,21.0620041 11.6570248,21.1735744 C11.6570248,21.3264669 11.5,21.4132438 11.2066116,21.4132438 C10.9706612,21.420062 10.7392562,21.3473347 10.5495868,21.2066322 L10.3429752,21.541343 C10.5933884,21.7161364 10.8931818,21.8060124 11.1983471,21.7975413 C11.768595,21.7975413 12.0991736,21.5289463 12.0991736,21.1529132 C12.0991736,20.7768802 11.838843,20.6239876 11.4090909,20.5620041 L11.2024793,20.5330785 C11.0165289,20.5082851 10.8677686,20.471095 10.8677686,20.3388636 C10.8677686,20.2066322 11.0082645,20.1074587 11.2438017,20.1074587 C11.4615702,20.109938 11.675,20.1682025 11.8636364,20.2768802 L12.053719,19.9297727 Z M17.5950413,19.7231612 C17.3816116,19.7169628 17.1818182,19.8279132 17.0743802,20.0124174 L17.0743802,19.7727479 L16.6487603,19.7727479 L16.6487603,21.7479545 L17.0785124,21.7479545 L17.0785124,20.6405165 C17.0785124,20.3140702 17.2190083,20.1322521 17.4917355,20.1322521 C17.5836777,20.1310124 17.675,20.1477479 17.7603306,20.1818388 L17.892562,19.7686157 C17.7944215,19.7334917 17.6911157,19.7153099 17.5867769,19.7148967 L17.5950413,19.7231612 Z M13.9297521,19.7727479 L13.2231405,19.7727479 L13.2231405,19.1735744 L12.7892562,19.1735744 L12.7892562,19.7727479 L12.3966942,19.7727479 L12.3966942,20.1653099 L12.7975207,20.1653099 L12.7975207,21.0744008 C12.7975207,21.5330785 12.9752066,21.8058058 13.4834711,21.8058058 C13.6733471,21.8064256 13.8595041,21.7535331 14.0206612,21.6529132 L13.8966942,21.2851446 C13.781405,21.3539463 13.6506198,21.392376 13.5165289,21.3967149 C13.3099174,21.3967149 13.231405,21.2644835 13.231405,21.0661364 L13.231405,20.1653099 L13.9338843,20.1653099 L13.9297521,19.7727479 Z M7.51033058,21.7479545 L7.51033058,20.5082851 C7.53842975,20.1029132 7.23264463,19.7516736 6.82747934,19.7235744 C6.79607438,19.7215083 6.76466942,19.7213017 6.73347107,19.7231612 C6.4553719,19.7049793 6.1892562,19.8394835 6.0392562,20.0744008 C5.90247934,19.8465083 5.6518595,19.7117975 5.38636364,19.7231612 C5.15516529,19.7113843 4.93491736,19.8229545 4.80785124,20.0165496 L4.80785124,19.7727479 L4.37809917,19.7727479 L4.37809917,21.7479545 L4.81198347,21.7479545 L4.81198347,20.6611777 C4.77747934,20.4078719 4.95454545,20.1746074 5.20785124,20.1398967 C5.23677686,20.1359711 5.2661157,20.1347314 5.29545455,20.1363843 C5.58057851,20.1363843 5.72520661,20.3223347 5.72520661,20.6570455 L5.72520661,21.756219 L6.15909091,21.756219 L6.15909091,20.6611777 C6.12561983,20.4066322 6.30495868,20.1731612 6.55950413,20.1398967 C6.58719008,20.1361777 6.61487603,20.134938 6.64256198,20.1363843 C6.93595041,20.1363843 7.07644628,20.3223347 7.07644628,20.6570455 L7.07644628,21.756219 L7.51033058,21.7479545 Z" id="Fill-1" fill="#FFFFFF"></path>
                        <mask id="mask-2" fill="white">
                            <use xlink:href="#path-1"></use>
                        </mask>
                        <g id="Clip-4"></g>
                        <polygon id="Fill-3" fill="#FF5F00" mask="url(#mask-2)" points="11.911157 16.4173554 18.4194215 16.4173554 18.4194215 4.72107438 11.911157 4.72107438"></polygon>
                        <path d="M12.3244008,10.5702066 C12.3219215,8.28756198 13.3696488,6.13053719 15.1653099,4.72103306 C11.9355579,2.18280992 7.25952479,2.74334711 4.72109504,5.97309917 C2.1828719,9.20305785 2.74340909,13.8790909 5.97316116,16.417314 C8.67068182,18.5371488 12.4679959,18.5371488 15.1653099,16.417314 C13.3702686,15.0084298 12.3225413,12.8522314 12.3244008,10.5702066" id="Fill-5" fill="#EB001B" mask="url(#mask-2)"></path>
                        <path d="M27.2004339,10.5702066 C27.2004339,14.6780579 23.870062,18.0082231 19.7622107,18.0082231 C18.0948554,18.0080165 16.4760537,17.4478926 15.1653099,16.417314 C18.395062,13.8790909 18.9558058,9.20305785 16.417376,5.97309917 C16.0514669,5.50739669 15.6310124,5.08714876 15.1653099,4.72103306 C18.3946488,2.18219008 23.0706818,2.74190083 25.6097314,5.97123967 C26.6401033,7.28198347 27.2004339,8.90078512 27.2004339,10.5681405 L27.2004339,10.5702066 Z" id="Fill-6" fill="#F79E1B" mask="url(#mask-2)"></path>
                        <path d="M27.3409504,15.8813582 L27.3409504,14.8884504 L27.2221385,14.8884504 L27.0835247,15.5976703 L26.9449108,14.8884504 L26.8393002,14.8884504 L26.8393002,15.8813582 L26.9251088,15.8813582 L26.9251088,15.1366774 L27.0538217,15.7820674 L27.1429306,15.7820674 L27.2716435,15.1366774 L27.2716435,15.8884504 L27.3409504,15.8813582 Z M26.5785742,15.8813582 L26.5785742,15.0586632 L26.7336897,15.0586632 L26.7336897,14.8884504 L26.3409504,14.8884504 L26.3409504,15.0586632 L26.5092672,15.0586632 L26.5092672,15.8813582 L26.5785742,15.8813582 Z" id="Fill-7" fill="#F79E1B" mask="url(#mask-2)"></path>
                    </g>
                </g>
            </g>
        </g>
    </g>
</svg>