<?xml version="1.0" encoding="UTF-8"?>
<svg width="40px" height="25px" viewBox="0 0 40 25" version="1.1" xmlns="http://www.w3.org/2000/svg" xmlns:xlink="http://www.w3.org/1999/xlink">
    <!-- Generator: Sketch 53.2 (72643) - https://sketchapp.com -->
    <title>Amex</title>
    <desc>Created with Sketch.</desc>
    <defs>
        <polygon id="path-1" points="0.209422222 0.164533333 32.4444444 0.164533333 32.4444444 6.44444444 0.209422222 6.44444444"></polygon>
        <polygon id="path-3" points="0 0.157777778 37.3395556 0.157777778 37.3395556 6.43773333 0 6.43773333"></polygon>
        <polygon id="path-5" points="0 14.7311333 40 14.7311333 40 0.222244444 0 0.222244444"></polygon>
    </defs>
    <g id="(done)-Footer---tanz" stroke="none" stroke-width="1" fill="none" fill-rule="evenodd">
        <g id="Footer" transform="translate(-672.000000, -529.000000)">
            <g id="Group-13" transform="translate(507.000000, 529.000000)">
                <g id="Amex" transform="translate(165.000000, 0.000000)">
                    <rect id="Rectangle" stroke="#016FD0" stroke-width="0.35" fill="#016FD0" x="0.175" y="0.175" width="39.65" height="24.65" rx="4"></rect>
                    <g id="Group-27" transform="translate(0.000000, 6.000000)">
                        <g id="Group-3" transform="translate(7.555556, 8.286689)">
                            <mask id="mask-2" fill="white">
                                <use xlink:href="#path-1"></use>
                            </mask>
                            <g id="Clip-2"></g>
                            <path d="M0.209422222,6.44431111 L0.209422222,0.164533333 L6.85875556,0.164533333 L7.57208889,1.09453333 L8.30897778,0.164533333 L32.4445333,0.164533333 L32.4445333,6.01142222 C32.4445333,6.01142222 31.8134222,6.43831111 31.0834222,6.44453333 L17.7189778,6.44453333 L16.9147556,5.45453333 L16.9147556,6.44453333 L14.2789778,6.44453333 L14.2789778,4.75453333 C14.2789778,4.75453333 13.9187556,4.99053333 13.1403111,4.99053333 L12.2434222,4.99053333 L12.2434222,6.44453333 L8.25275556,6.44453333 L7.54031111,5.49453333 L6.81697778,6.44453333 L0.209422222,6.44431111 Z" id="Fill-1" fill="#FFFFFF" mask="url(#mask-2)"></path>
                        </g>
                        <g id="Group-6" transform="translate(0.000000, 0.064467)">
                            <mask id="mask-4" fill="white">
                                <use xlink:href="#path-3"></use>
                            </mask>
                            <g id="Clip-5"></g>
                            <path d="M0,3.65351111 L1.49955556,0.157733333 L4.09266667,0.157733333 L4.94355556,2.11595556 L4.94355556,0.157733333 L8.16711111,0.157733333 L8.67355556,1.57306667 L9.16488889,0.157733333 L23.6348889,0.157733333 L23.6348889,0.869288889 C23.6348889,0.869288889 24.3955556,0.157733333 25.6457778,0.157733333 L30.3408889,0.174177778 L31.1771111,2.10662222 L31.1771111,0.157733333 L33.8748889,0.157733333 L34.6171111,1.26795556 L34.6171111,0.157733333 L37.3395556,0.157733333 L37.3395556,6.43773333 L34.6171111,6.43773333 L33.9055556,5.32417778 L33.9055556,6.43773333 L29.9422222,6.43773333 L29.5435556,5.44773333 L28.4782222,5.44773333 L28.0862222,6.43773333 L25.3984444,6.43773333 C24.3224444,6.43773333 23.6348889,5.74062222 23.6348889,5.74062222 L23.6348889,6.43773333 L19.5824444,6.43773333 L18.778,5.44773333 L18.778,6.43773333 L3.70844444,6.43773333 L3.31022222,5.44773333 L2.248,5.44773333 L1.85266667,6.43773333 L0,6.43773333 L0,3.65351111 Z" id="Fill-4" fill="#FFFFFF" mask="url(#mask-4)"></path>
                        </g>
                        <path d="M2.77842222,2.0908 L3.43975556,3.73613333 L2.11531111,3.73613333 L2.77842222,2.0908 Z M2.0302,0.996355556 L0.00775555556,5.69857778 L1.32442222,5.69857778 L1.69753333,4.75702222 L3.86686667,4.75702222 L4.2382,5.69857778 L5.58397778,5.69857778 L3.56353333,0.996355556 L2.0302,0.996355556 Z" id="Fill-7" fill="#016FD0"></path>
                        <polygon id="Fill-9" fill="#016FD0" points="5.72308889 5.69777778 5.72308889 0.995555556 7.5942 1.00266667 8.68264444 4.03422222 9.74486667 0.995555556 11.6008667 0.995555556 11.6008667 5.69777778 10.4255333 5.69777778 10.4255333 2.23311111 9.17931111 5.69777778 8.14842222 5.69777778 6.89864444 2.23311111 6.89864444 5.69777778"></polygon>
                        <polygon id="Fill-11" fill="#016FD0" points="12.4053778 5.69777778 12.4053778 0.995555556 16.2413778 0.995555556 16.2413778 2.04733333 13.5931556 2.04733333 13.5931556 2.85177778 16.1793778 2.85177778 16.1793778 3.84155556 13.5931556 3.84155556 13.5931556 4.67688889 16.2413778 4.67688889 16.2413778 5.69777778"></polygon>
                        <path d="M18.0975556,2.04826667 L19.4413333,2.04826667 C19.7637778,2.04826667 19.9982222,2.30048889 19.9982222,2.54337778 C19.9982222,2.8556 19.6944444,3.03826667 19.4586667,3.03826667 L18.0975556,3.03826667 L18.0975556,2.04826667 Z M16.922,0.996488889 L16.922,5.69871111 L18.0975556,5.69871111 L18.0975556,4.02804444 L18.5924444,4.02804444 L20.002,5.69871111 L21.4386667,5.69871111 L19.8917778,3.96626667 C20.5264444,3.91271111 21.1813333,3.36782222 21.1813333,2.52182222 C21.1813333,1.53248889 20.4046667,0.996488889 19.538,0.996488889 L16.922,0.996488889 Z" id="Fill-13" fill="#016FD0"></path>
                        <mask id="mask-6" fill="white">
                            <use xlink:href="#path-5"></use>
                        </mask>
                        <g id="Clip-16"></g>
                        <polygon id="Fill-15" fill="#016FD0" mask="url(#mask-6)" points="21.6613333 5.6978 22.8615556 5.6978 22.8615556 0.995577778 21.6613333 0.995577778"></polygon>
                        <path d="M25.7076889,5.69777778 L25.4485778,5.69777778 C24.1950222,5.69777778 23.4339111,4.71022222 23.4339111,3.366 C23.4339111,1.98866667 24.1863556,0.995555556 25.7694667,0.995555556 L27.0688,0.995555556 L27.0688,2.10933333 L25.7219111,2.10933333 C25.0794667,2.10933333 24.6250222,2.61066667 24.6250222,3.37777778 C24.6250222,4.28822222 25.1445778,4.67066667 25.8932444,4.67066667 L26.2028,4.67066667 L25.7076889,5.69777778 Z" id="Fill-17" fill="#016FD0" mask="url(#mask-6)"></path>
                        <path d="M29.0138889,2.0908 L29.6752222,3.73613333 L28.3507778,3.73613333 L29.0138889,2.0908 Z M28.2656667,0.996355556 L26.2432222,5.69857778 L27.5598889,5.69857778 L27.9332222,4.75702222 L30.1023333,4.75702222 L30.4736667,5.69857778 L31.8194444,5.69857778 L29.7987778,0.996355556 L28.2656667,0.996355556 Z" id="Fill-18" fill="#016FD0" mask="url(#mask-6)"></path>
                        <polygon id="Fill-19" fill="#016FD0" mask="url(#mask-6)" points="31.9568222 5.69777778 31.9568222 0.995555556 33.4512667 0.995555556 35.3597111 3.95 35.3597111 0.995555556 36.5352667 0.995555556 36.5352667 5.69777778 35.0890444 5.69777778 33.1323778 2.66622222 33.1323778 5.69777778"></polygon>
                        <polygon id="Fill-20" fill="#016FD0" mask="url(#mask-6)" points="8.56922222 13.9267333 8.56922222 9.22451111 12.4054444 9.22451111 12.4054444 10.2762889 9.75722222 10.2762889 9.75722222 11.0805111 12.3434444 11.0805111 12.3434444 12.0705111 9.75722222 12.0705111 9.75722222 12.9058444 12.4054444 12.9058444 12.4054444 13.9267333"></polygon>
                        <polygon id="Fill-21" fill="#016FD0" mask="url(#mask-6)" points="27.3658889 13.9267333 27.3658889 9.22451111 31.2018889 9.22451111 31.2018889 10.2762889 28.5538889 10.2762889 28.5538889 11.0805111 31.1276667 11.0805111 31.1276667 12.0705111 28.5538889 12.0705111 28.5538889 12.9058444 31.2018889 12.9058444 31.2018889 13.9267333"></polygon>
                        <polygon id="Fill-22" fill="#016FD0" mask="url(#mask-6)" points="12.5541556 13.9267333 14.4219333 11.6047333 12.5097111 9.22451111 13.9908222 9.22451111 15.1294889 10.6958444 16.2721556 9.22451111 17.6952667 9.22451111 15.8083778 11.5756222 17.6794889 13.9269556 16.1986 13.9269556 15.0928222 12.4785111 14.0139333 13.9269556"></polygon>
                        <path d="M19.0256,10.2887111 L20.3287111,10.2887111 C20.6669333,10.2887111 20.9089333,10.4960444 20.9089333,10.8302667 C20.9089333,11.1440444 20.6682667,11.3716 20.3249333,11.3716 L19.0256,11.3716 L19.0256,10.2887111 Z M17.8191556,9.22537778 L17.8191556,13.9276 L19.0256,13.9276 L19.0256,12.4424889 L20.2629333,12.4424889 C21.3100444,12.4424889 22.1038222,11.8871556 22.1038222,10.8069333 C22.1038222,9.91204444 21.4811556,9.22537778 20.4158222,9.22537778 L17.8191556,9.22537778 Z" id="Fill-23" fill="#016FD0" mask="url(#mask-6)"></path>
                        <path d="M23.7897111,10.2763556 L25.1334889,10.2763556 C25.4557111,10.2763556 25.6903778,10.5285778 25.6903778,10.7714667 C25.6903778,11.0839111 25.3866,11.2663556 25.1508222,11.2663556 L23.7897111,11.2663556 L23.7897111,10.2763556 Z M22.6141556,9.22457778 L22.6141556,13.9268 L23.7897111,13.9268 L23.7897111,12.2561333 L24.2848222,12.2561333 L25.6939333,13.9268 L27.1306,13.9268 L25.5839333,12.1943556 C26.2188222,12.1408 26.8734889,11.5959111 26.8734889,10.7501333 C26.8734889,9.76057778 26.0968222,9.22457778 25.2299333,9.22457778 L22.6141556,9.22457778 Z" id="Fill-24" fill="#016FD0" mask="url(#mask-6)"></path>
                        <path d="M31.7463111,13.9267333 L31.7463111,12.9058444 L34.0989778,12.9058444 C34.4472,12.9058444 34.5978667,12.7178444 34.5978667,12.5116222 C34.5978667,12.3138444 34.4476444,12.1140667 34.0989778,12.1140667 L33.0358667,12.1140667 C32.1118667,12.1140667 31.5969778,11.5509556 31.5969778,10.7056222 C31.5969778,9.95162222 32.0683111,9.22451111 33.4416444,9.22451111 L35.7309778,9.22451111 L35.2358667,10.2827333 L33.2560889,10.2827333 C32.8776444,10.2827333 32.7609778,10.4811778 32.7609778,10.6709556 C32.7609778,10.8658444 32.9049778,11.0805111 33.1943111,11.0805111 L34.3078667,11.0805111 C35.3380889,11.0805111 35.7849778,11.6651778 35.7849778,12.4305111 C35.7849778,13.2529556 35.2869778,13.9269556 34.2516444,13.9269556 L31.7463111,13.9267333 Z" id="Fill-25" fill="#016FD0" mask="url(#mask-6)"></path>
                        <path d="M36.0609778,13.9267333 L36.0609778,12.9058444 L38.3140889,12.9058444 C38.6620889,12.9058444 38.8129778,12.7178444 38.8129778,12.5116222 C38.8129778,12.3138444 38.6625333,12.1140667 38.3140889,12.1140667 L37.3505333,12.1140667 C36.4265333,12.1140667 35.9116444,11.5509556 35.9116444,10.7056222 C35.9116444,9.95162222 36.3829778,9.22451111 37.7563111,9.22451111 L40.0000889,9.22451111 L39.5049778,10.2827333 L37.5707556,10.2827333 C37.1920889,10.2827333 37.0756444,10.4811778 37.0756444,10.6709556 C37.0756444,10.8658444 37.2196444,11.0805111 37.5087556,11.0805111 L38.5227556,11.0805111 C39.5529778,11.0805111 40.0000889,11.6651778 40.0000889,12.4305111 C40.0000889,13.2529556 39.5018667,13.9269556 38.4667556,13.9269556 L36.0609778,13.9267333 Z" id="Fill-26" fill="#016FD0" mask="url(#mask-6)"></path>
                    </g>
                </g>
            </g>
        </g>
    </g>
</svg>